<svg xmlns="http://www.w3.org/2000/svg" viewBox="0 0 132 132" width="132" height="132">
<path d="M 108 88 L 75 93 L 74 94 L 62 95 L 61 96 L 48 97 L 54 122 L 64 117 L 97 95 L 108 89 Z" fill="#a3164c"/>
<path d="M 42 68 L 22 87 L 22 107 L 25 114 L 32 121 L 39 124 L 50 124 L 52 123 L 44 94 L 43 68 Z" fill="#a3164c"/>
<path d="M 118 54 L 114 50 L 110 49 L 99 63 L 89 73 L 63 92 L 64 93 L 70 91 L 76 91 L 77 90 L 82 90 L 114 84 L 119 79 L 122 72 L 122 63 Z" fill="#a3164c"/>
<path d="M 23 28 L 22 83 L 43 64 L 43 47 L 47 42 Z" fill="#a3164c"/>
<path d="M 61 18 L 66 25 L 85 61 L 91 68 L 109 47 L 65 19 Z" fill="#a3164c"/>
<path d="M 26 17 L 23 24 L 25 27 L 57 44 L 80 58 L 77 50 L 56 14 L 47 9 L 37 9 L 31 12 Z" fill="#a3164c"/>
</svg>